<svg width="26" height="26" viewBox="0 0 26 26" fill="none" xmlns="http://www.w3.org/2000/svg">
<path fill-rule="evenodd" clip-rule="evenodd" d="M19.0774 17.936C20.4677 16.2936 21.3061 14.1689 21.3061 11.8485C21.3061 6.64194 17.0854 2.4212 11.8788 2.4212C6.67227 2.4212 2.45154 6.64194 2.45154 11.8485C2.45154 17.055 6.67227 21.2757 11.8788 21.2757C14.1993 21.2757 16.3239 20.4374 17.9663 19.047L20.7506 21.8313C21.0574 22.1381 21.5548 22.1381 21.8616 21.8313C22.1684 21.5245 22.1684 21.027 21.8616 20.7202L19.0774 17.936ZM19.7349 11.8485C19.7349 16.1873 16.2176 19.7045 11.8788 19.7045C7.54003 19.7045 4.02275 16.1873 4.02275 11.8485C4.02275 7.50969 7.54003 3.99242 11.8788 3.99242C16.2176 3.99242 19.7349 7.50969 19.7349 11.8485Z" fill="black"/>
</svg>
